<?xml version="1.0" encoding="UTF-8"?>
<svg id="a" data-name="Layer 2" xmlns="http://www.w3.org/2000/svg" viewBox="0 0 283.4645 283.4645">
  <defs>
    <style>
      .b {
        fill: #f49918;
      }

      .c {
        fill: #fff;
      }
    </style>
  </defs>
  <g>
    <path class="b" d="M140.1084,139.9092c-1.0781,0-2.0166.2021-2.8135.6064-.7979.4043-1.4604.9492-1.9883,1.6343s-.9321,1.4937-1.2129,2.4253c-.2808.9326-.4434,1.9258-.4883,2.9814h12.668c.0674-2.3799-.4102-4.25-1.4316-5.6089-1.0225-1.3589-2.6006-2.0386-4.7334-2.0386Z"/>
    <path class="b" d="M57.3408,139.9092c-1.0781,0-2.0161.2021-2.813.6064-.7979.4043-1.4604.9492-1.9883,1.6343s-.9321,1.4937-1.2129,2.4253c-.2808.9326-.4434,1.9258-.4883,2.9814h12.668c.0674-2.3799-.4102-4.25-1.4316-5.6089-1.0225-1.3589-2.6001-2.0386-4.7339-2.0386Z"/>
    <path class="b" d="M27.937,143.5479c-.5615-.9209-1.3086-1.6392-2.2407-2.1562-.9321-.5166-2.1055-.7749-3.5205-.7749-1.2583,0-2.3584.2305-3.3018.6904-.9434.4609-1.7183,1.1348-2.3247,2.021-.6064.8877-1.061,1.9541-1.3647,3.2012-.3027,1.2461-.4546,2.667-.4546,4.2617,0,1.4824.123,2.8467.3706,4.0938.2471,1.2461.6455,2.3301,1.1963,3.251.5498.9209,1.2969,1.6338,2.2402,2.1396.9434.5049,2.1108.7578,3.5039.7578,1.2803,0,2.3921-.2305,3.3354-.6904s1.7183-1.1289,2.3247-2.0049,1.0557-1.9375,1.3477-3.1836c.2915-1.2471.438-2.667.438-4.2617,0-1.4824-.1177-2.8477-.354-4.0938-.2354-1.2471-.6348-2.3301-1.1958-3.251Z"/>
    <path class="b" d="M141.7323,0C63.4557,0,0,63.4557,0,141.7322s63.4557,141.7323,141.7323,141.7323,141.7322-63.4557,141.7322-141.7323S220.0089,0,141.7323,0ZM37.2021,157.5635c-.6738,2.1113-1.6963,3.9307-3.0659,5.457-1.3701,1.5283-3.0884,2.707-5.1548,3.5381-2.0669.8311-4.481,1.2471-7.2437,1.2471-2.6733,0-4.998-.3711-6.9741-1.1123-1.9766-.7412-3.6167-1.8193-4.9189-3.2344-1.3027-1.415-2.269-3.1553-2.8975-5.2217-.6289-2.0664-.9434-4.4248-.9434-7.0752,0-2.5605.3423-4.9023,1.0273-7.0254.6851-2.1216,1.7129-3.9409,3.083-5.4575,1.3696-1.5156,3.083-2.6895,5.1377-3.5205,2.0557-.8306,4.4644-1.2466,7.2271-1.2466,2.6953,0,5.0312.3652,7.0078,1.0952,1.9761.73,3.6104,1.8022,4.9019,3.2173s2.252,3.1558,2.8809,5.2217c.6284,2.0674.9434,4.4365.9434,7.1094,0,2.5605-.3369,4.8965-1.0107,7.0078ZM71.7271,149.9824c0,1.0332-.2305,1.7979-.6904,2.291-.4609.4941-1.0952.7412-1.9038.7412h-18.2944c0,1.2803.1514,2.4424.4551,3.4873.3027,1.0439.7856,1.9316,1.4482,2.6611.6626.7305,1.5166,1.2861,2.5605,1.668,1.0449.3818,2.2964.5723,3.7568.5723,1.4824,0,2.7847-.1055,3.9082-.3193,1.123-.2139,2.0942-.4492,2.9141-.708.8198-.2578,1.4995-.4932,2.0386-.707s.9771-.3203,1.314-.3203c.2021,0,.3706.0391.5054.1182s.2471.2188.3369.4209c.0894.2021.1519.4883.1851.8594.0342.3701.0508.8369.0508,1.3984,0,.4941-.0117.915-.0337,1.2627-.0225.3486-.0562.6465-.1011.8936-.0454.2471-.1128.4541-.2021.623-.0898.168-.208.3311-.3535.4883-.1465.1572-.5449.3711-1.1963.6406-.6519.2695-1.4824.5332-2.4932.791s-2.168.4834-3.4702.6738c-1.3027.1904-2.6953.2871-4.1777.2871-2.6733,0-5.0146-.3379-7.0249-1.0117s-3.689-1.6953-5.0366-3.0654-2.353-3.0996-3.0151-5.1885c-.6631-2.0889-.9941-4.5361-.9941-7.3447,0-2.6729.3481-5.0811,1.0444-7.2266.6958-2.1445,1.7065-3.9639,3.0322-5.4575,1.3252-1.4937,2.9365-2.6333,4.8345-3.4199,1.8979-.7861,4.0376-1.1792,6.4185-1.1792,2.5151,0,4.6665.3706,6.4517,1.1118,1.7861.7412,3.2515,1.7686,4.397,3.083,1.1455,1.3135,1.9878,2.8691,2.5269,4.666.5391,1.7974.8086,3.7515.8086,5.8618v1.3477ZM97.8369,161.9092c-.6406,1.3027-1.5449,2.3926-2.7124,3.2676-1.168.877-2.5493,1.5332-4.144,1.9717-1.5952.4375-3.3242.6572-5.1885.6572-1.1235,0-2.1958-.085-3.2178-.2529-1.022-.1689-1.937-.3828-2.7456-.6406s-1.4824-.5225-2.0215-.792-.9321-.5215-1.1792-.7578c-.2476-.2354-.438-.6064-.5728-1.1113-.1348-.5059-.2021-1.252-.2021-2.2402,0-.6514.022-1.1738.0674-1.5674.0449-.3926.1123-.707.2021-.9434.0894-.2354.2021-.3926.3369-.4717.1348-.0781.3032-.1172.5054-.1172.2471,0,.6118.1396,1.0947.4209s1.0835.5889,1.8027.9268c.7188.3359,1.5552.6514,2.5098.9434s2.0386.4375,3.2515.4375c.7632,0,1.4429-.0781,2.0386-.2363.5947-.1562,1.1113-.3809,1.5498-.6738.4375-.291.769-.6621.9937-1.1113.2241-.4492.3369-.9658.3369-1.5498,0-.6738-.208-1.252-.6235-1.7354-.4155-.4824-.9658-.9043-1.6504-1.2627-.6855-.3594-1.4604-.6963-2.3252-1.0107s-1.752-.6621-2.6611-1.0449c-.9102-.3818-1.7974-.8193-2.6621-1.3135s-1.6396-1.1006-2.3242-1.8193c-.6855-.7188-1.2358-1.584-1.6514-2.5947s-.623-2.2236-.623-3.6387c0-1.4365.2808-2.7563.8423-3.9585.561-1.2012,1.3696-2.2285,2.4258-3.0825,1.0557-.8535,2.3413-1.5161,3.8579-1.9878,1.5156-.4717,3.2173-.7075,5.104-.7075.9434,0,1.8584.0674,2.7456.2021s1.6899.3032,2.4092.5054c.7188.2021,1.3252.4209,1.8193.6572.4937.2354.8477.4375,1.0615.6064.2129.168.3647.3369.4546.5049.0894.1689.1567.3711.2021.6064.0449.2363.0845.5283.1177.876.0342.3486.0508.7808.0508,1.2974,0,.6064-.0166,1.1006-.0508,1.4824-.0332.3823-.0898.6855-.168.9097-.0791.2246-.1855.3765-.3203.4551s-.292.1177-.4717.1177c-.2021,0-.5171-.1177-.9434-.354-.4268-.2354-.96-.4883-1.6006-.7578-.6396-.2695-1.3809-.5225-2.2236-.7578-.8418-.2363-1.8022-.354-2.8804-.354-.7637,0-1.4268.0791-1.9878.2358-.5615.1572-1.0225.3823-1.3813.6738-.3594.292-.6289.6348-.8086,1.0273-.1802.3936-.2695.8145-.2695,1.2632,0,.6963.2134,1.2803.6401,1.752.4263.4717.9883.8877,1.6846,1.2471.6958.3594,1.4878.6963,2.375,1.0107s1.7861.6562,2.6953,1.0273c.9102.3701,1.8081.8037,2.6953,1.2969.8872.4941,1.6792,1.1006,2.3755,1.8193.6958.7197,1.2578,1.5781,1.6846,2.5771.4263,1,.6401,2.1846.6401,3.5547,0,1.707-.3203,3.2119-.96,4.5146ZM114.9546,159.3652c.5166.8203,1.437,1.2295,2.7627,1.2295.4492,0,.8535-.0381,1.2129-.1172.3589-.0791.6792-.1689.9604-.2695.2803-.1016.5161-.1904.707-.2695s.3652-.1182.5225-.1182c.1348,0,.2637.0391.3877.1182.123.0791.2188.2354.2861.4717.0674.2354.1289.5557.1855.96.0557.4043.084.9209.084,1.5498,0,.9883-.062,1.7471-.1855,2.2744s-.2861.8984-.4883,1.1113c-.2021.2139-.5.4043-.8926.5732-.3936.168-.854.3145-1.3818.4375s-1.1006.2197-1.7178.2861c-.6182.0684-1.2417.1016-1.8701.1016-1.6846,0-3.145-.2139-4.3799-.6406-1.2354-.4258-2.2573-1.083-3.0659-1.9707-.8086-.8867-1.4038-2.0039-1.7856-3.3516-.3823-1.3477-.5728-2.9424-.5728-4.7852v-15.396h-3.605c-.4268,0-.7529-.2637-.9771-.792-.2246-.5273-.3369-1.4092-.3369-2.6445,0-.6514.0278-1.2012.0845-1.6509.0557-.4492.1396-.8027.2524-1.061.1123-.2583.2524-.4434.4214-.5562.168-.1123.3647-.1685.5894-.1685h3.5713v-6.7046c0-.2241.0615-.4263.1851-.6064.1235-.1797.3481-.3311.6738-.4546s.7637-.2134,1.3145-.2695c.5498-.0562,1.2295-.0845,2.0381-.0845.8306,0,1.5215.0283,2.0723.0845.5498.0562.9819.146,1.2969.2695.3145.1235.5391.2749.6738.4546.1348.1802.2021.3823.2021.6064v6.7046h6.5361c.2241,0,.4209.0562.5898.1685.168.1128.3081.2979.4209.5562.1123.2583.1963.6118.2529,1.061.0557.4497.084.9995.084,1.6509,0,1.2354-.1128,2.1172-.3369,2.6445-.2246.5283-.5508.792-.9771.792h-6.5698v14.1167c0,1.6396.2578,2.8691.7749,3.6885ZM154.4941,149.9824c0,1.0332-.2305,1.7979-.6904,2.291-.4609.4941-1.0957.7412-1.9043.7412h-18.2939c0,1.2803.1514,2.4424.4551,3.4873.3027,1.0439.7856,1.9316,1.4482,2.6611.6621.7305,1.5166,1.2861,2.5605,1.668,1.0449.3818,2.2969.5723,3.7568.5723,1.4824,0,2.7852-.1055,3.9082-.3193s2.0938-.4492,2.9141-.708c.8203-.2578,1.499-.4932,2.0381-.707s.9775-.3203,1.3145-.3203c.2021,0,.3711.0391.5059.1182s.2461.2188.3359.4209.1523.4883.1855.8594c.0342.3701.0508.8369.0508,1.3984,0,.4941-.0117.915-.0332,1.2627-.0234.3486-.0566.6465-.1016.8936s-.1123.4541-.2021.623c-.0898.168-.208.3311-.3535.4883-.1465.1572-.5449.3711-1.1963.6406s-1.4824.5332-2.4932.791-2.168.4834-3.4697.6738c-1.3037.1904-2.6953.2871-4.1777.2871-2.6738,0-5.0151-.3379-7.0254-1.0117s-3.689-1.6953-5.0366-3.0654-2.353-3.0996-3.0151-5.1885c-.6631-2.0889-.9941-4.5361-.9941-7.3447,0-2.6729.3481-5.0811,1.0444-7.2266.6958-2.1445,1.7065-3.9639,3.0322-5.4575,1.3252-1.4937,2.9365-2.6333,4.8345-3.4199,1.8979-.7861,4.0371-1.1792,6.418-1.1792,2.5156,0,4.667.3706,6.4521,1.1118,1.7861.7412,3.251,1.7686,4.3975,3.083,1.1445,1.3135,1.9873,2.8691,2.5264,4.666.5391,1.7974.8086,3.7515.8086,5.8618v1.3477Z"/>
  </g>
  <g>
    <path class="c" d="M34.3887,138.2246c-1.2915-1.415-2.9258-2.4873-4.9019-3.2173-1.9766-.73-4.3125-1.0952-7.0078-1.0952-2.7627,0-5.1714.416-7.2271,1.2466-2.0547.8311-3.7681,2.0049-5.1377,3.5205-1.3701,1.5166-2.3979,3.3359-3.083,5.4575-.6851,2.123-1.0273,4.4648-1.0273,7.0254,0,2.6504.3145,5.0088.9434,7.0752.6284,2.0664,1.5947,3.8066,2.8975,5.2217,1.3022,1.415,2.9424,2.4932,4.9189,3.2344,1.9761.7412,4.3008,1.1123,6.9741,1.1123,2.7627,0,5.1768-.416,7.2437-1.2471,2.0664-.8311,3.7847-2.0098,5.1548-3.5381,1.3696-1.5264,2.3921-3.3457,3.0659-5.457s1.0107-4.4473,1.0107-7.0078c0-2.6729-.3149-5.042-.9434-7.1094-.6289-2.0659-1.5894-3.8066-2.8809-5.2217ZM29.0488,155.1543c-.292,1.2461-.7412,2.3076-1.3477,3.1836s-1.3813,1.5449-2.3247,2.0049-2.0552.6904-3.3354.6904c-1.3931,0-2.5605-.2529-3.5039-.7578-.9434-.5059-1.6904-1.2188-2.2402-2.1396-.5508-.9209-.9492-2.0049-1.1963-3.251-.2476-1.2471-.3706-2.6113-.3706-4.0938,0-1.5947.1519-3.0156.4546-4.2617.3037-1.2471.7583-2.3135,1.3647-3.2012.6064-.8862,1.3813-1.5601,2.3247-2.021.9434-.46,2.0435-.6904,3.3018-.6904,1.415,0,2.5884.2583,3.5205.7749.9321.5171,1.6792,1.2354,2.2407,2.1562.561.9209.9604,2.0039,1.1958,3.251.2363,1.2461.354,2.6113.354,4.0938,0,1.5947-.1465,3.0146-.438,4.2617Z"/>
    <path class="c" d="M68.3916,138.1069c-1.1455-1.3145-2.6108-2.3418-4.397-3.083-1.7852-.7412-3.9365-1.1118-6.4517-1.1118-2.3809,0-4.5205.3931-6.4185,1.1792-1.8979.7866-3.5093,1.9263-4.8345,3.4199-1.3257,1.4937-2.3364,3.313-3.0322,5.4575-.6963,2.1455-1.0444,4.5537-1.0444,7.2266,0,2.8086.3311,5.2559.9941,7.3447.6621,2.0889,1.6675,3.8184,3.0151,5.1885s3.0264,2.3916,5.0366,3.0654,4.3516,1.0117,7.0249,1.0117c1.4824,0,2.875-.0967,4.1777-.2871,1.3022-.1904,2.4595-.416,3.4702-.6738s1.8413-.5215,2.4932-.791c.6514-.2695,1.0498-.4834,1.1963-.6406.1455-.1572.2637-.3203.3535-.4883.0894-.1689.1567-.376.2021-.623.0449-.2471.0786-.5449.1011-.8936.022-.3477.0337-.7686.0337-1.2627,0-.5615-.0166-1.0283-.0508-1.3984-.0332-.3711-.0957-.6572-.1851-.8594-.0898-.2021-.2021-.3418-.3369-.4209s-.3032-.1182-.5054-.1182c-.3369,0-.7749.1064-1.314.3203s-1.2188.4492-2.0386.707c-.8198.2588-1.791.4941-2.9141.708-1.1235.2139-2.4258.3193-3.9082.3193-1.4604,0-2.7119-.1904-3.7568-.5723-1.0439-.3818-1.8979-.9375-2.5605-1.668-.6626-.7295-1.1455-1.6172-1.4482-2.6611-.3037-1.0449-.4551-2.207-.4551-3.4873h18.2944c.8086,0,1.4429-.2471,1.9038-.7412.46-.4932.6904-1.2578.6904-2.291v-1.3477c0-2.1104-.2695-4.0645-.8086-5.8618-.5391-1.7969-1.3813-3.3525-2.5269-4.666ZM50.8384,147.5566c.0449-1.0557.2075-2.0488.4883-2.9814.2808-.9316.6851-1.7402,1.2129-2.4253s1.1904-1.23,1.9883-1.6343c.7969-.4043,1.7349-.6064,2.813-.6064,2.1338,0,3.7114.6797,4.7339,2.0386,1.0215,1.3589,1.499,3.229,1.4316,5.6089h-12.668Z"/>
    <path class="c" d="M96.4722,151.2627c-.6963-.7188-1.4883-1.3252-2.3755-1.8193-.8872-.4932-1.7852-.9268-2.6953-1.2969-.9092-.3711-1.8081-.7129-2.6953-1.0273s-1.6792-.6514-2.375-1.0107c-.6963-.3594-1.2583-.7754-1.6846-1.2471-.4268-.4717-.6401-1.0557-.6401-1.752,0-.4487.0894-.8696.2695-1.2632.1797-.3926.4492-.7354.8086-1.0273.3589-.2915.8198-.5166,1.3813-.6738.561-.1567,1.2241-.2358,1.9878-.2358,1.0781,0,2.0386.1177,2.8804.354.8428.2354,1.584.4883,2.2236.7578.6406.2695,1.1738.5225,1.6006.7578.4263.2363.7412.354.9434.354.1797,0,.3369-.0391.4717-.1177s.2412-.2305.3203-.4551c.0781-.2241.1348-.5273.168-.9097.0342-.3818.0508-.876.0508-1.4824,0-.5166-.0166-.9487-.0508-1.2974-.0332-.3477-.0728-.6396-.1177-.876-.0454-.2354-.1128-.4375-.2021-.6064-.0898-.168-.2417-.3369-.4546-.5049-.2139-.1689-.5679-.3711-1.0615-.6064-.4941-.2363-1.1006-.4551-1.8193-.6572-.7192-.2021-1.522-.3706-2.4092-.5054s-1.8022-.2021-2.7456-.2021c-1.8867,0-3.5884.2358-5.104.7075-1.5166.4717-2.8022,1.1343-3.8579,1.9878-1.0562.854-1.8647,1.8813-2.4258,3.0825-.5615,1.2021-.8423,2.522-.8423,3.9585,0,1.415.2075,2.6279.623,3.6387s.9658,1.876,1.6514,2.5947c.6846.7188,1.4595,1.3252,2.3242,1.8193s1.752.9316,2.6621,1.3135c.9092.3828,1.7964.7305,2.6611,1.0449s1.6396.6514,2.3252,1.0107c.6846.3584,1.2349.7803,1.6504,1.2627.4155.4834.6235,1.0615.6235,1.7354,0,.584-.1128,1.1006-.3369,1.5498-.2246.4492-.5562.8203-.9937,1.1113-.4385.293-.9551.5176-1.5498.6738-.5957.1582-1.2754.2363-2.0386.2363-1.2129,0-2.2969-.1455-3.2515-.4375s-1.791-.6074-2.5098-.9434c-.7192-.3379-1.3198-.6455-1.8027-.9268s-.8477-.4209-1.0947-.4209c-.2021,0-.3706.0391-.5054.1172-.1348.0791-.2476.2363-.3369.4717-.0898.2363-.1572.5508-.2021.9434-.0454.3936-.0674.916-.0674,1.5674,0,.9883.0674,1.7344.2021,2.2402.1348.5049.3252.876.5728,1.1113.2471.2363.6401.4883,1.1792.7578s1.2129.5342,2.0215.792,1.7236.4717,2.7456.6406c1.022.168,2.0942.2529,3.2178.2529,1.8643,0,3.5933-.2197,5.1885-.6572,1.5947-.4385,2.9761-1.0947,4.144-1.9717,1.1675-.875,2.0718-1.9648,2.7124-3.2676.6396-1.3027.96-2.8076.96-4.5146,0-1.3701-.2139-2.5547-.6401-3.5547-.4268-.999-.9888-1.8574-1.6846-2.5771Z"/>
    <path class="c" d="M120.7495,141.5601c.4263,0,.7524-.2637.9771-.792.2241-.5273.3369-1.4092.3369-2.6445,0-.6514-.0283-1.2012-.084-1.6509-.0566-.4492-.1406-.8027-.2529-1.061-.1128-.2583-.2529-.4434-.4209-.5562-.1689-.1123-.3657-.1685-.5898-.1685h-6.5361v-6.7046c0-.2241-.0674-.4263-.2021-.6064-.1348-.1797-.3594-.3311-.6738-.4546-.3149-.1235-.7471-.2134-1.2969-.2695-.5508-.0562-1.2417-.0845-2.0723-.0845-.8086,0-1.4883.0283-2.0381.0845-.5508.0562-.9888.146-1.3145.2695s-.5503.2749-.6738.4546c-.1235.1802-.1851.3823-.1851.6064v6.7046h-3.5713c-.2246,0-.4214.0562-.5894.1685-.1689.1128-.3091.2979-.4214.5562-.1128.2583-.1968.6118-.2524,1.061-.0566.4497-.0845.9995-.0845,1.6509,0,1.2354.1123,2.1172.3369,2.6445.2241.5283.5503.792.9771.792h3.605v15.396c0,1.8428.1904,3.4375.5728,4.7852.3818,1.3477.9771,2.4648,1.7856,3.3516.8086.8877,1.8306,1.5449,3.0659,1.9707,1.2349.4268,2.6953.6406,4.3799.6406.6284,0,1.252-.0332,1.8701-.1016.6172-.0664,1.1899-.1631,1.7178-.2861s.9883-.2695,1.3818-.4375c.3926-.1689.6904-.3594.8926-.5732.2021-.2129.3647-.584.4883-1.1113s.1855-1.2861.1855-2.2744c0-.6289-.0283-1.1455-.084-1.5498-.0566-.4043-.1182-.7246-.1855-.96-.0674-.2363-.1631-.3926-.2861-.4717-.124-.0791-.2529-.1182-.3877-.1182-.1572,0-.3315.0391-.5225.1182s-.4268.168-.707.2695c-.2812.1006-.6016.1904-.9604.2695-.3594.0791-.7637.1172-1.2129.1172-1.3257,0-2.2461-.4092-2.7627-1.2295-.5171-.8193-.7749-2.0488-.7749-3.6885v-14.1167h6.5698Z"/>
    <path class="c" d="M151.1592,138.1069c-1.1465-1.3145-2.6113-2.3418-4.3975-3.083-1.7852-.7412-3.9365-1.1118-6.4521-1.1118-2.3809,0-4.52.3931-6.418,1.1792-1.8979.7866-3.5093,1.9263-4.8345,3.4199-1.3257,1.4937-2.3364,3.313-3.0322,5.4575-.6963,2.1455-1.0444,4.5537-1.0444,7.2266,0,2.8086.3311,5.2559.9941,7.3447.6621,2.0889,1.6675,3.8184,3.0151,5.1885s3.0264,2.3916,5.0366,3.0654,4.3516,1.0117,7.0254,1.0117c1.4824,0,2.874-.0967,4.1777-.2871,1.3018-.1904,2.459-.416,3.4697-.6738s1.8418-.5215,2.4932-.791,1.0498-.4834,1.1963-.6406c.1455-.1572.2637-.3203.3535-.4883.0898-.1689.1572-.376.2021-.623s.0781-.5449.1016-.8936c.0215-.3477.0332-.7686.0332-1.2627,0-.5615-.0166-1.0283-.0508-1.3984-.0332-.3711-.0957-.6572-.1855-.8594s-.2012-.3418-.3359-.4209-.3037-.1182-.5059-.1182c-.3369,0-.7754.1064-1.3145.3203s-1.2178.4492-2.0381.707c-.8203.2588-1.791.4941-2.9141.708s-2.4258.3193-3.9082.3193c-1.46,0-2.7119-.1904-3.7568-.5723-1.0439-.3818-1.8984-.9375-2.5605-1.668-.6626-.7295-1.1455-1.6172-1.4482-2.6611-.3037-1.0449-.4551-2.207-.4551-3.4873h18.2939c.8086,0,1.4434-.2471,1.9043-.7412.46-.4932.6904-1.2578.6904-2.291v-1.3477c0-2.1104-.2695-4.0645-.8086-5.8618-.5391-1.7969-1.3818-3.3525-2.5264-4.666ZM133.6055,147.5566c.0449-1.0557.2075-2.0488.4883-2.9814.2808-.9316.6851-1.7402,1.2129-2.4253s1.1904-1.23,1.9883-1.6343c.7969-.4043,1.7354-.6064,2.8135-.6064,2.1328,0,3.7109.6797,4.7334,2.0386,1.0215,1.3589,1.499,3.229,1.4316,5.6089h-12.668Z"/>
  </g>
</svg>